<svg width="24" height="25" viewBox="0 0 24 25" fill="none" xmlns="http://www.w3.org/2000/svg">
<path d="M15.0006 23.3499H9.00063C7.68063 23.3499 6.58063 23.2199 5.65063 22.9399C5.31063 22.8399 5.09063 22.5099 5.11063 22.1599C5.36063 19.1699 8.39063 16.8198 12.0006 16.8198C15.6106 16.8198 18.6306 19.1599 18.8906 22.1599C18.9206 22.5199 18.7006 22.8399 18.3506 22.9399C17.4206 23.2199 16.3206 23.3499 15.0006 23.3499ZM6.72063 21.6599C7.38063 21.7899 8.13063 21.8499 9.00063 21.8499H15.0006C15.8706 21.8499 16.6206 21.7899 17.2806 21.6599C16.7506 19.7399 14.5606 18.3198 12.0006 18.3198C9.44063 18.3198 7.25063 19.7399 6.72063 21.6599Z" fill="white"/>
<path d="M15 2.6001H9C4 2.6001 2 4.6001 2 9.6001V15.6001C2 19.3801 3.14 21.4501 5.86 22.2201C6.08 19.6201 8.75 17.5701 12 17.5701C15.25 17.5701 17.92 19.6201 18.14 22.2201C20.86 21.4501 22 19.3801 22 15.6001V9.6001C22 4.6001 20 2.6001 15 2.6001ZM12 14.7701C10.02 14.7701 8.42 13.1601 8.42 11.1801C8.42 9.20012 10.02 7.6001 12 7.6001C13.98 7.6001 15.58 9.20012 15.58 11.1801C15.58 13.1601 13.98 14.7701 12 14.7701Z" stroke="white" stroke-width="1.5" stroke-linecap="round" stroke-linejoin="round"/>
<path d="M11.9999 15.5201C9.60992 15.5201 7.66992 13.5701 7.66992 11.1801C7.66992 8.79012 9.60992 6.8501 11.9999 6.8501C14.3899 6.8501 16.3299 8.79012 16.3299 11.1801C16.3299 13.5701 14.3899 15.5201 11.9999 15.5201ZM11.9999 8.3501C10.4399 8.3501 9.16992 9.62012 9.16992 11.1801C9.16992 12.7501 10.4399 14.0201 11.9999 14.0201C13.5599 14.0201 14.8299 12.7501 14.8299 11.1801C14.8299 9.62012 13.5599 8.3501 11.9999 8.3501Z" fill="white"/>
</svg>
