<svg width="42" height="43" viewBox="0 0 42 43" fill="none" xmlns="http://www.w3.org/2000/svg">
<path d="M16.0302 19.6228C15.8552 19.6053 15.6452 19.6053 15.4527 19.6228C11.2877 19.4828 7.98022 16.0703 7.98022 11.8703C7.98022 7.58284 11.4452 4.10034 15.7502 4.10034C20.0377 4.10034 23.5202 7.58284 23.5202 11.8703C23.5027 16.0703 20.1952 19.4828 16.0302 19.6228Z" stroke="#00AC4F" stroke-width="2.625" stroke-linecap="round" stroke-linejoin="round"/>
<path d="M28.7171 7.59961C32.1121 7.59961 34.8421 10.3471 34.8421 13.7246C34.8421 17.0321 32.2171 19.7271 28.9446 19.8496C28.8046 19.8321 28.6471 19.8321 28.4896 19.8496" stroke="#00AC4F" stroke-width="2.625" stroke-linecap="round" stroke-linejoin="round"/>
<path d="M7.2805 26.0796C3.0455 28.9146 3.0455 33.5346 7.2805 36.3521C12.093 39.5721 19.9855 39.5721 24.798 36.3521C29.033 33.5171 29.033 28.8971 24.798 26.0796C20.003 22.8771 12.1105 22.8771 7.2805 26.0796Z" stroke="#00AC4F" stroke-width="2.625" stroke-linecap="round" stroke-linejoin="round"/>
<path d="M32.0947 35.6003C33.3547 35.3378 34.5447 34.8303 35.5247 34.0778C38.2547 32.0303 38.2547 28.6528 35.5247 26.6053C34.5622 25.8703 33.3897 25.3803 32.1472 25.1003" stroke="#00AC4F" stroke-width="2.625" stroke-linecap="round" stroke-linejoin="round"/>
</svg>
