<svg width="24" height="25" viewBox="0 0 24 25" fill="none" xmlns="http://www.w3.org/2000/svg">
<path d="M10.7516 17.4604V19.4904C10.7516 21.2104 9.15158 22.6005 7.18158 22.6005C5.21158 22.6005 3.60156 21.2104 3.60156 19.4904V17.4604C3.60156 19.1804 5.20158 20.4004 7.18158 20.4004C9.15158 20.4004 10.7516 19.1704 10.7516 17.4604Z" stroke="#9197B3" stroke-width="1.5" stroke-linecap="round" stroke-linejoin="round"/>
<path d="M10.7501 14.7099C10.7501 15.2099 10.6101 15.6699 10.3701 16.0699C9.78006 17.0399 8.57004 17.6499 7.17004 17.6499C5.77004 17.6499 4.56003 17.0299 3.97003 16.0699C3.73003 15.6699 3.59009 15.2099 3.59009 14.7099C3.59009 13.8499 3.99007 13.0799 4.63007 12.5199C5.28007 11.9499 6.17003 11.6099 7.16003 11.6099C8.15003 11.6099 9.04006 11.9599 9.69006 12.5199C10.3501 13.0699 10.7501 13.8499 10.7501 14.7099Z" stroke="#9197B3" stroke-width="1.5" stroke-linecap="round" stroke-linejoin="round"/>
<path d="M10.7516 14.7101V17.4601C10.7516 19.1801 9.15158 20.4001 7.18158 20.4001C5.21158 20.4001 3.60156 19.1701 3.60156 17.4601V14.7101C3.60156 12.9901 5.20158 11.6001 7.18158 11.6001C8.17158 11.6001 9.06161 11.9501 9.71161 12.5101C10.3516 13.0701 10.7516 13.8501 10.7516 14.7101Z" stroke="#9197B3" stroke-width="1.5" stroke-linecap="round" stroke-linejoin="round"/>
<path d="M22 11.5698V13.6299C22 14.1799 21.56 14.6298 21 14.6498H19.0399C17.9599 14.6498 16.97 13.8598 16.88 12.7798C16.82 12.1498 17.0599 11.5598 17.4799 11.1498C17.8499 10.7698 18.36 10.5498 18.92 10.5498H21C21.56 10.5698 22 11.0198 22 11.5698Z" stroke="#9197B3" stroke-width="1.5" stroke-linecap="round" stroke-linejoin="round"/>
<path d="M2 11.1001V9.1001C2 6.3801 3.64 4.4801 6.19 4.1601C6.45 4.1201 6.72 4.1001 7 4.1001H16C16.26 4.1001 16.51 4.11009 16.75 4.15009C19.33 4.45009 21 6.3601 21 9.1001V10.5501H18.92C18.36 10.5501 17.85 10.7701 17.48 11.1501C17.06 11.5601 16.82 12.1501 16.88 12.7801C16.97 13.8601 17.96 14.6501 19.04 14.6501H21V16.1001C21 19.1001 19 21.1001 16 21.1001H13.5" stroke="#9197B3" stroke-width="1.5" stroke-linecap="round" stroke-linejoin="round"/>
</svg>
