<svg width="24" height="25" viewBox="0 0 24 25" fill="none" xmlns="http://www.w3.org/2000/svg">
<path d="M15.75 19.25V17.75C15.75 16.9544 15.4339 16.1913 14.8713 15.6287C14.3087 15.0661 13.5456 14.75 12.75 14.75H6.75C5.95435 14.75 5.19129 15.0661 4.62868 15.6287C4.06607 16.1913 3.75 16.9544 3.75 17.75V19.25" stroke="black" stroke-width="1.125" stroke-linecap="round" stroke-linejoin="round"/>
<path d="M9.75 11.75C11.4069 11.75 12.75 10.4069 12.75 8.75C12.75 7.09315 11.4069 5.75 9.75 5.75C8.09315 5.75 6.75 7.09315 6.75 8.75C6.75 10.4069 8.09315 11.75 9.75 11.75Z" stroke="black" stroke-width="1.125" stroke-linecap="round" stroke-linejoin="round"/>
<path d="M20.25 19.2502V17.7502C20.2495 17.0855 20.0283 16.4397 19.621 15.9144C19.2138 15.389 18.6436 15.0138 18 14.8477" stroke="black" stroke-width="1.125" stroke-linecap="round" stroke-linejoin="round"/>
<path d="M15 5.84766C15.6453 6.01288 16.2173 6.38818 16.6257 6.91439C17.0342 7.4406 17.2559 8.08778 17.2559 8.75391C17.2559 9.42003 17.0342 10.0672 16.6257 10.5934C16.2173 11.1196 15.6453 11.4949 15 11.6602" stroke="black" stroke-width="1.125" stroke-linecap="round" stroke-linejoin="round"/>
</svg>
